<svg version="1.0" xmlns="http://www.w3.org/2000/svg" width="750.000000pt" height="750.000000pt" viewBox="0 0 750.000000 750.000000" preserveAspectRatio="xMidYMid meet">
    <style>
        @media (prefers-color-scheme: dark) {
            .fillable { fill: white }
        }
    </style>
    <g transform="translate(0.000000,750.000000) scale(0.100000,-0.100000)" stroke="none">
        <path class="fillable" fill="black" d="M336 7243 c-2 -10 -7 -72 -11 -138 -3 -66 -8 -128 -11 -137 -4 -15
14 -17 203 -20 197 -3 210 -4 239 -25 107 -76 119 -318 110 -2148 -6 -1199
-14 -1552 -36 -1635 -8 -31 -17 -41 -43 -49 -71 -22 -117 -31 -242 -46 -141
-17 -181 -28 -195 -56 -6 -10 -10 -72 -10 -138 l0 -121 994 0 993 0 7 93 c4
50 9 122 12 158 l6 66 -141 2 c-184 1 -261 19 -338 77 -68 51 -67 40 -71 894
l-3 765 133 -2 c161 -3 224 -15 303 -57 122 -64 226 -191 531 -646 l186 -277
-55 -124 c-125 -285 -179 -451 -218 -681 -21 -116 -23 -166 -23 -393 0 -236 3
-273 27 -405 88 -487 295 -907 611 -1237 204 -214 543 -444 792 -538 89 -33
327 -100 465 -131 77 -17 161 -27 259 -31 167 -7 278 7 492 62 447 114 788
300 1050 574 170 177 279 341 423 637 142 294 169 324 286 324 51 0 72 5 90
19 23 18 24 26 28 170 l3 151 -458 -2 -458 -3 -44 -145 c-124 -411 -363 -722
-678 -879 -119 -60 -223 -86 -387 -101 -154 -13 -510 -14 -567 -1 -200 45
-408 169 -591 351 -219 219 -367 493 -428 795 -19 91 -40 331 -41 446 l0 46
518 7 c284 3 624 9 755 12 l237 7 0 108 c0 168 -8 178 -173 210 -184 34 -285
80 -383 172 -162 151 -434 515 -434 580 0 39 189 187 326 255 114 57 177 68
503 82 355 16 436 3 666 -113 217 -108 306 -185 435 -378 105 -157 200 -354
247 -512 l38 -127 458 -3 457 -2 0 30 c-1 72 -21 218 -34 244 -16 30 -47 46
-107 56 -90 16 -118 52 -275 357 -127 244 -169 314 -266 444 -391 526 -1069
819 -1771 766 -369 -28 -639 -112 -992 -307 -93 -51 -175 -95 -182 -97 -12 -3
-210 281 -565 809 l-170 253 153 187 c458 563 856 972 1037 1066 122 63 337
120 496 132 63 5 102 13 112 22 16 16 17 51 7 196 l-6 97 -954 0 c-524 0 -953
-2 -953 -4 0 -1 -5 -61 -10 -131 -15 -174 -18 -170 137 -178 214 -12 312 -64
315 -168 3 -92 -494 -740 -929 -1211 -205 -223 -296 -298 -345 -283 -30 10
-57 82 -68 186 -12 121 -12 1043 0 1174 18 181 50 248 135 281 36 13 81 17
226 18 l181 1 -6 60 c-3 33 -8 104 -12 158 l-7 97 -993 0 c-937 0 -993 -1
-998 -17z" />
    </g>
</svg>
